<svg id="SvgjsSvg1043" width="288" height="288" xmlns="http://www.w3.org/2000/svg" version="1.1" xmlns:xlink="http://www.w3.org/1999/xlink" xmlns:svgjs="http://svgjs.com/svgjs"><defs id="SvgjsDefs1044"></defs><g id="SvgjsG1045"><svg xmlns="http://www.w3.org/2000/svg" width="288" height="288"><rect width="582" height="402" x="-1" y="-1" fill="none"></rect><g fill="#ffffff" class="color000 svgShape"><line x1="15.92" x2="28.92" y1="16" y2="16" fill="none" stroke="#ffffff" stroke-linecap="round" stroke-linejoin="round" stroke-width="2" class="cls-1 colorStrokefff svgStroke"></line><path d="m23.93,25l0,3l-16,0l0,-24l16,0l0,3l2,0l0,-4a1,1 0 0 0 -1,-1l-18,0a1,1 0 0 0 -1,1l0,26a1,1 0 0 0 1,1l18,0a1,1 0 0 0 1,-1l0,-4l-2,0z" fill="#ffffff" class="color000 svgShape"></path><line x1="28.92" x2="24.92" y1="16" y2="20" fill="none" stroke="#ffffff" stroke-linecap="round" stroke-linejoin="round" stroke-width="2" class="cls-1 colorStrokefff svgStroke"></line><line x1="28.92" x2="24.92" y1="16" y2="12" fill="none" stroke="#ffffff" stroke-linecap="round" stroke-linejoin="round" stroke-width="2" class="cls-1 colorStrokefff svgStroke"></line><line x1="24.92" x2="24.92" y1="8.09" y2="6.09" fill="none" stroke="#ffffff" stroke-linecap="round" stroke-linejoin="round" stroke-width="2" class="cls-1 colorStrokefff svgStroke"></line><line x1="24.92" x2="24.92" y1="26" y2="24" fill="none" stroke="#ffffff" stroke-linecap="round" stroke-linejoin="round" stroke-width="2" class="cls-1 colorStrokefff svgStroke"></line></g></svg></g></svg>