<svg width="36" height="34" viewBox="0 0 36 34" fill="none" xmlns="http://www.w3.org/2000/svg">
<path d="M6.5835 4.49998C7.13603 4.49998 7.66593 4.28049 8.05664 3.88978C8.44734 3.49908 8.66683 2.96918 8.66683 2.41665C8.66683 1.86411 8.44734 1.33421 8.05664 0.943507C7.66593 0.552807 7.13603 0.333313 6.5835 0.333313H2.41683C1.8643 0.333313 1.33439 0.552807 0.943691 0.943507C0.55299 1.33421 0.333496 1.86411 0.333496 2.41665V31.5833C0.333496 32.1358 0.55299 32.6657 0.943691 33.0564C1.33439 33.4472 1.8643 33.6666 2.41683 33.6666H6.5835C7.13603 33.6666 7.66593 33.4472 8.05664 33.0564C8.44734 32.6657 8.66683 32.1358 8.66683 31.5833C8.66683 31.0308 8.44734 30.5009 8.05664 30.1102C7.66593 29.7195 7.13603 29.5 6.5835 29.5H4.50016V4.49998H6.5835ZM35.3752 15.7916L29.5002 7.45831C29.1816 7.00917 28.6981 6.70444 28.1554 6.61075C27.6128 6.51705 27.0551 6.64201 26.6043 6.95831C26.379 7.1162 26.1872 7.31715 26.04 7.54957C25.8927 7.78199 25.793 8.04127 25.7465 8.31245C25.7 8.58362 25.7077 8.86132 25.7691 9.12951C25.8305 9.39769 25.9445 9.65106 26.1043 9.87498L29.6877 14.9166H12.8335C12.281 14.9166 11.7511 15.1361 11.3604 15.5268C10.9697 15.9175 10.7502 16.4474 10.7502 17C10.7502 17.5525 10.9697 18.0824 11.3604 18.4731C11.7511 18.8638 12.281 19.0833 12.8335 19.0833H29.5002L25.7502 24.0833C25.586 24.3022 25.4666 24.5512 25.3987 24.8163C25.3308 25.0813 25.3157 25.3571 25.3544 25.6279C25.3931 25.8988 25.4848 26.1593 25.6242 26.3948C25.7636 26.6302 25.948 26.8358 26.1668 27C26.5274 27.2704 26.9661 27.4166 27.4168 27.4166C27.7403 27.4166 28.0592 27.3413 28.3485 27.1967C28.6378 27.0521 28.8894 26.8421 29.0835 26.5833L35.3335 18.25C35.6003 17.8976 35.7482 17.4695 35.7556 17.0276C35.7631 16.5857 35.6299 16.1528 35.3752 15.7916Z" fill="white"/>
</svg>
