<svg width="50" height="50" viewBox="0 0 50 50" fill="none" xmlns="http://www.w3.org/2000/svg">
<path d="M49.2188 15.4563V9.54375L47.0359 9.00703C46.9398 8.74766 46.8312 8.48828 46.7109 8.22969L47.8766 6.30391L43.6953 2.12266L41.7703 3.28906C41.5117 3.16875 41.2523 3.06016 40.993 2.96406L40.4562 0.78125H34.5438L34.007 2.96406C33.7477 3.06016 33.4883 3.16875 33.2297 3.28906L31.3039 2.12344L27.1227 6.30469L28.2883 8.23047C28.168 8.48906 28.0594 8.74844 27.9633 9.00781L25.7812 9.54375V14.8438H4.6875C2.53359 14.8438 0.78125 16.5961 0.78125 18.75V37.5C0.78125 39.6539 2.53359 41.4062 4.6875 41.4062H10.9375V44.5312H7.8125C6.95078 44.5312 6.25 45.232 6.25 46.0938V47.6562C6.25 48.518 6.95078 49.2188 7.8125 49.2188H24.2188H25.8125H49.2188V46.0938C49.2188 40.4094 45.4008 35.607 40.1961 34.0961C41.8672 32.9727 42.9688 31.0664 42.9688 28.9062C42.9688 26.868 41.9836 25.0602 40.4695 23.9187L40.5492 23.8414L40.993 22.0359C41.2523 21.9398 41.5117 21.8312 41.7703 21.7109L43.6961 22.8766L47.8773 18.6953L46.7117 16.7695C46.832 16.5109 46.9406 16.2516 47.0367 15.9922L49.2188 15.4563ZM4.6875 16.4062H31.25C32.5422 16.4062 33.5938 17.4578 33.5938 18.75V23.5016C33.0055 23.843 32.4781 24.2781 32.0312 24.7859V19.5312C32.0312 18.6695 31.3305 17.9688 30.4688 17.9688H5.46875C4.60703 17.9688 3.90625 18.6695 3.90625 19.5312V35.1562H2.34375V18.75C2.34375 17.4578 3.39531 16.4062 4.6875 16.4062ZM32.0312 12.5C32.0312 9.48516 34.4852 7.03125 37.5 7.03125C40.5148 7.03125 42.9688 9.48516 42.9688 12.5C42.9688 15.5148 40.5148 17.9688 37.5 17.9688C36.5719 17.9688 35.6688 17.7242 34.8641 17.2789C34.4672 16.3078 33.6922 15.5328 32.7203 15.1359C32.2758 14.3297 32.0312 13.4273 32.0312 12.5ZM40.5203 42.9445L37.8281 47.6562H37.7469L40.9789 36.0203C41.3125 36.1617 41.6375 36.3211 41.9539 36.4938L41.4586 39.468L39.675 41.2516L40.5203 42.9445ZM35.6094 47.6562L32.9172 42.9445L33.7633 41.2523L31.9797 39.4688L31.4844 36.4945C31.8 36.3219 32.125 36.1625 32.4594 36.0211L35.6906 47.6562H35.6094ZM27.3438 35.1562H25.7812V22.6562H27.3438V35.1562ZM32.0312 34.5141V33.0266C32.3875 33.432 32.7914 33.7945 33.2414 34.0961C32.8289 34.2156 32.425 34.3539 32.0312 34.5141ZM30.4688 35.1562H28.9062V21.0938H24.2188V35.1562H22.6562V24.2188H17.9688V35.1562H16.4062V27.3438H11.7188V35.1562H5.46875V19.5312H30.4688V35.1562ZM21.0938 35.1562H19.5312V25.7812H21.0938V35.1562ZM14.8438 35.1562H13.2812V28.9062H14.8438V35.1562ZM2.34375 37.5V36.7188H28.4789C27.4625 37.6133 26.5938 38.6664 25.9102 39.8438H4.6875C3.39531 39.8438 2.34375 38.7922 2.34375 37.5ZM12.5 41.4062H25.1391C24.7383 42.3922 24.4641 43.4398 24.3273 44.5312H12.5V41.4062ZM7.8125 47.6562V46.0938H24.2188V47.6562H7.8125ZM25.7812 47.6562V46.0938C25.7812 42.5703 27.4625 39.4398 30.0578 37.4383L30.5211 40.2188L31.8625 41.5602L31.1461 42.993L33.8102 47.6562H29.6875V41.4062H28.125V47.6562H25.8125H25.7812ZM47.6562 46.0938V47.6562H45.3125V41.4062H43.75V47.6562H39.6273L42.2922 42.993L41.5758 41.5602L42.9172 40.2188L43.3805 37.4383C45.975 39.4398 47.6562 42.5703 47.6562 46.0938ZM39.4937 35.5266L36.7188 45.5172L33.9438 35.5266C34.832 35.293 35.7586 35.1562 36.7188 35.1562C37.6789 35.1562 38.6055 35.293 39.4937 35.5266ZM41.4062 28.9062C41.4062 31.4914 39.3039 33.5938 36.7188 33.5938C34.1336 33.5938 32.0312 31.4914 32.0312 28.9062C32.0312 26.3211 34.1336 24.2188 36.7188 24.2188C39.3039 24.2188 41.4062 26.3211 41.4062 28.9062ZM45.9055 18.4578L43.4578 20.9055L41.8375 19.925L41.4484 20.1273C41.0008 20.3602 40.5469 20.55 40.1008 20.6914L39.682 20.8234L39.1391 23.0344L39.0563 23.1148C38.3336 22.8211 37.5453 22.6562 36.7188 22.6562C36.1781 22.6562 35.657 22.732 35.1562 22.8617V19.1125C35.9062 19.3781 36.6945 19.5312 37.5 19.5312C41.3773 19.5312 44.5312 16.3773 44.5312 12.5C44.5312 8.62266 41.3773 5.46875 37.5 5.46875C33.6227 5.46875 30.4688 8.62266 30.4688 12.5C30.4688 13.3055 30.6219 14.0938 30.8875 14.8438H27.3438V10.7688L29.1773 10.318L29.3094 9.89922C29.4508 9.45391 29.6406 9 29.8734 8.55156L30.0758 8.1625L29.0953 6.54219L31.543 4.09453L33.1633 5.075L33.5523 4.87266C34 4.63984 34.4539 4.45 34.9 4.30859L35.3187 4.17656L35.7687 2.34375H39.2313L39.682 4.17734L40.1008 4.30937C40.5461 4.45078 41 4.64062 41.4484 4.87344L41.8375 5.07578L43.4578 4.09531L45.9055 6.54297L44.925 8.16328L45.1273 8.55234C45.3602 9 45.55 9.45391 45.6914 9.9L45.8234 10.3188L47.6562 10.7688V14.2312L45.8227 14.682L45.6906 15.1C45.5492 15.5461 45.3594 16 45.1266 16.4484L44.9242 16.8375L45.9055 18.4578Z" fill="white"/>
<path d="M37.5 16.4062C39.6539 16.4062 41.4062 14.6539 41.4062 12.5C41.4062 10.3461 39.6539 8.59375 37.5 8.59375C35.3461 8.59375 33.5938 10.3461 33.5938 12.5C33.5938 14.6539 35.3461 16.4062 37.5 16.4062ZM37.5 10.1562C38.7922 10.1562 39.8438 11.2078 39.8438 12.5C39.8438 13.7922 38.7922 14.8438 37.5 14.8438C36.2078 14.8438 35.1562 13.7922 35.1562 12.5C35.1562 11.2078 36.2078 10.1562 37.5 10.1562Z" fill="white"/>
<path d="M7.03125 21.0938H8.59375V22.6562H7.03125V21.0938Z" fill="white"/>
<path d="M10.1562 21.0938H11.7188V22.6562H10.1562V21.0938Z" fill="white"/>
<path d="M13.2812 21.0938H14.8438V22.6562H13.2812V21.0938Z" fill="white"/>
<path d="M7 24H14.8125V25.5625H7V24Z" fill="white"/>
</svg>
